<svg width="60" height="49" viewBox="0 0 60 49" fill="none" xmlns="http://www.w3.org/2000/svg">
<path d="M47.4989 34.1393C45.9105 34.4689 43.9698 34.4765 42.2182 34.16L41.6387 34.0552L42.5627 32.563C44.2371 29.8588 45.3027 27.8202 46.4367 25.152C47.5576 22.5142 48.3149 20.1625 48.8651 17.6101C49.1683 16.204 49.5442 13.9126 49.4665 13.944C49.4481 13.9514 49.309 14.4591 49.1574 15.0722C47.5562 21.5466 44.219 28.2418 40.4984 32.4446C40.0834 32.9133 39.7169 33.2774 39.6839 33.2536C39.3297 32.9984 38.0427 31.3496 37.4032 30.3318C36.7492 29.2909 35.9988 27.4893 35.8212 26.534C35.4803 24.6992 35.6939 23.2081 36.5359 21.5449C37.5523 19.5373 39.1752 17.7388 42.0909 15.389C45.5131 12.6311 46.5481 11.6395 47.6465 10.0674C48.4252 8.95273 49.082 7.42909 49.3332 6.15499C49.4098 5.76627 49.4913 5.4394 49.5143 5.42858C49.5863 5.39473 50.3911 6.63931 50.8645 7.51657C51.5661 8.81685 52.154 10.1633 52.6352 11.5721C55.4379 19.7774 55.2117 27.5846 52.0617 31.3792C51.4997 32.056 50.8311 32.6516 50.1861 33.0501C49.5168 33.4634 48.2178 33.99 47.4995 34.139L47.4989 34.1393ZM30.2931 40.9696C27.2384 41.9023 24.3809 41.9041 21.6209 40.9749C18.6431 39.9727 15.5402 37.545 13.5695 34.6754C12.6939 33.4005 12.1622 32.383 10.8891 29.5458C10.2292 28.0753 9.54905 26.6525 9.31843 26.2602C7.5023 23.1707 5.17896 21.6712 0.926813 20.8448L0.291395 20.7212L0.641575 20.4368C1.17782 20.0012 2.36889 19.2231 3.13026 18.811C4.28568 18.1857 7.24043 17.0941 8.79482 16.7184C14.4717 15.346 20.8909 15.3089 26.4243 16.6167C29.5554 17.3566 32.574 18.6449 34.5934 20.1029L35.0975 20.467L34.5869 21.6327C34.0293 22.9061 33.8521 23.5565 33.7902 24.5573C33.6551 26.7459 34.6049 29.1255 36.5109 31.3728C36.7967 31.7098 37.0247 31.999 37.0175 32.0154C37.0103 32.0318 36.8245 31.8961 36.6045 31.7137C32.1837 28.0487 27.535 25.5339 22.5343 24.1023C21.2588 23.7372 18.5215 23.1415 18.3807 23.1983C18.3618 23.2059 19.0247 23.4967 19.8537 23.8443C23.8642 25.5264 27.2346 27.3994 30.2451 29.6186C31.3329 30.4206 33.2451 32.0915 34.0942 32.9819C35.2947 34.2408 36.5068 35.8651 36.889 36.7271L37.0796 37.157L36.5356 37.5986C34.8747 38.9472 32.2185 40.3814 30.2935 40.9691L30.2931 40.9696ZM37.164 32.2089C37.1229 32.1793 37.0983 32.1346 37.1092 32.1096C37.1201 32.0846 37.1664 32.1036 37.2121 32.152C37.3069 32.2523 37.2756 32.2893 37.164 32.2089Z" fill="#F88500"/>
</svg>
